<svg height="512" viewBox="0 0 512 512" width="512" xmlns="http://www.w3.org/2000/svg"><path d="m33.328 458.929-12.267 12.266c-5.452 5.452-5.451 14.291.001 19.743 2.726 2.725 6.298 4.089 9.871 4.089s7.145-1.363 9.871-4.089l12.267-12.267z"/><path d="m384.372 230.667c-4.582-12.988-10.643-25.177-17.975-36.407l-89.173 95.741c-2.582 2.773-6.18 4.376-9.968 4.444-.083.001-.166.002-.249.002-3.699 0-7.251-1.469-9.871-4.089l-35.495-35.495c-2.679-2.679-4.154-6.332-4.087-10.118.068-3.788 1.671-7.385 4.444-9.968l95.742-89.175c-11.23-7.332-23.421-13.393-36.407-17.975-28.358-5.249-57.391 3.755-77.806 24.17-13.918 13.92-22.819 32.355-25.062 51.91l-4.19 36.54c-.314 2.738-1.696 5.243-3.844 6.969-7.119 5.722-16.345 8.004-25.314 6.262-8.966-1.742-16.666-7.313-21.126-15.285l-.742-1.327c-2.13-3.806-5.826-6.331-10.145-6.93-.648-.09-1.294-.133-1.934-.133-3.633 0-7.094 1.422-9.714 4.043l-35.622 35.623c-.625.624-1.327 1.168-2.089 1.617l-28.903 17.027c-9.336 5.388-16.858 13.3-23.077 24.24-20.357 35.812-13.822 81.577 15.891 111.29l10.475 10.475 53.587-69.616c1.838-2.385 4.614-3.866 7.62-4.061 3.004-.205 5.949.916 8.08 3.044l41.094 41.093c2.13 2.131 3.239 5.074 3.044 8.08s-1.674 5.783-4.062 7.621l-69.614 53.588 10.475 10.475c29.714 29.714 75.477 36.246 111.29 15.892 10.94-6.22 18.854-13.74 24.192-22.995l17.077-28.986c.449-.761.992-1.463 1.617-2.089l35.622-35.622c3.083-3.082 4.508-7.327 3.91-11.647-.599-4.319-3.124-8.015-6.929-10.144l-1.329-.744c-7.97-4.458-13.542-12.158-15.284-21.123-1.742-8.968.54-18.194 6.262-25.315 1.727-2.148 4.23-3.53 6.969-3.843l36.541-4.19c19.555-2.243 37.991-11.145 51.91-25.064 20.414-20.415 29.42-49.45 24.169-77.805zm-187.273 62.002c-1.313 5.63-6.937 9.137-12.575 7.818l-3.579-.834c-7.001-1.628-14.463-.294-20.462 3.671l-5.087 3.364c-7.775 5.141-16.896 7.823-26.096 7.823-3.675 0-7.362-.428-10.981-1.298-5.623-1.35-9.086-7.003-7.734-12.625s7.007-9.087 12.626-7.734c7.059 1.695 14.578.37 20.636-3.631l5.087-3.364c10.78-7.129 24.176-9.536 36.767-6.596l3.578.834c5.632 1.312 9.133 6.941 7.82 12.572zm29.042 70.395-3.363 5.088c-4.005 6.054-5.328 13.576-3.631 20.633 1.351 5.622-2.111 11.276-7.733 12.627-.821.197-1.645.293-2.456.293-4.728 0-9.018-3.225-10.171-8.026-3.048-12.682-.67-26.196 6.524-37.076l3.363-5.088c3.967-5.998 5.306-13.457 3.672-20.462l-.834-3.579c-1.313-5.631 2.188-11.261 7.819-12.573 5.634-1.319 11.261 2.188 12.575 7.818l.834 3.579c2.935 12.586.53 25.988-6.599 36.766z"/><path d="m506.537 5.463c-3.642-3.641-8.427-5.463-13.212-5.463s-9.567 1.82-13.211 5.463l-29.566 29.566c1.126.621 2.188 1.397 3.14 2.35l20.932 20.932c.952.952 1.732 2.013 2.352 3.138l29.564-29.564c7.285-7.284 7.285-19.137.001-26.422z"/><path d="m101.044 386.721-47.979 62.33 9.884 9.884 62.33-47.977z"/><path d="m443.818 47.25-212.305 197.741 35.497 35.496 197.74-212.305z"/></svg>
